<svg xmlns="http://www.w3.org/2000/svg" xmlns:xlink="http://www.w3.org/1999/xlink" width="1430" height="1430" viewBox="0 0 1430 1430">
  <defs>
    <clipPath id="clip-path">
      <path id="Path_830" data-name="Path 830" d="M715,0C320.111,0,0,320.111,0,715s320.111,715,715,715,715-320.111,715-715S1109.889,0,715,0Zm0,0"/>
    </clipPath>
    <clipPath id="clip-path-2">
      <path id="Path_833" data-name="Path 833" d="M74.117,74.117H938.85V938.85H74.117Zm0,0" transform="translate(-74.117 -74.117)"/>
    </clipPath>
    <clipPath id="clip-path-3">
      <path id="Path_832" data-name="Path 832" d="M506.484,74.117c-238.8,0-432.366,193.571-432.366,432.366S267.689,938.85,506.484,938.85,938.85,745.279,938.85,506.484,745.279,74.117,506.484,74.117Zm0,0" transform="translate(-74.117 -74.117)"/>
    </clipPath>
    <clipPath id="clip-path-4">
      <path id="Path_836" data-name="Path 836" d="M79.484,79.484h823.8v823.8H79.484Zm0,0" transform="translate(-79.484 -79.484)"/>
    </clipPath>
    <clipPath id="clip-path-5">
      <path id="Path_835" data-name="Path 835" d="M491.384,79.484c-227.489,0-411.9,184.41-411.9,411.9s184.41,411.9,411.9,411.9,411.9-184.41,411.9-411.9S718.873,79.484,491.384,79.484Zm0,0" transform="translate(-79.484 -79.484)"/>
    </clipPath>
    <clipPath id="clip-path-6">
      <path id="Path_839" data-name="Path 839" d="M79.484,79.484h823.68v823.68H79.484Zm0,0" transform="translate(-79.484 -79.484)"/>
    </clipPath>
    <clipPath id="clip-path-7">
      <path id="Path_838" data-name="Path 838" d="M491.369,79.484c-227.474,0-411.885,184.41-411.885,411.885s184.41,411.885,411.885,411.885,411.885-184.41,411.885-411.885S718.843,79.484,491.369,79.484Zm0,0" transform="translate(-79.484 -79.484)"/>
    </clipPath>
    <clipPath id="clip-_5">
      <rect width="1430" height="1430"/>
    </clipPath>
  </defs>
  <g id="_5" data-name="5" clip-path="url(#clip-_5)">
    <g id="Circle_Sports_Football_Soccer_Badge_Logo_2_" data-name="Circle Sports Football &amp; Soccer Badge Logo (2)">
      <g id="Group_967" data-name="Group 967" clip-path="url(#clip-path)">
        <rect id="Rectangle_45" data-name="Rectangle 45" width="1716" height="1716" transform="translate(-143 -143)" fill="#fff"/>
        <path id="Path_829" data-name="Path 829" d="M715,0C320.111,0,0,320.111,0,715s320.111,715,715,715,715-320.111,715-715S1109.889,0,715,0Zm0,0" transform="translate(0)" fill="none" stroke="#000" stroke-width="35"/>
      </g>
      <g id="Group_969" data-name="Group 969" transform="translate(282.634 282.634)" clip-path="url(#clip-path-2)">
        <g id="Group_968" data-name="Group 968" clip-path="url(#clip-path-3)">
          <path id="Path_831" data-name="Path 831" d="M74.117,74.117H938.85V938.85H74.117Zm0,0" transform="translate(-74.117 -74.117)" fill="#fff"/>
        </g>
      </g>
      <g id="Group_971" data-name="Group 971" transform="translate(303.1 303.1)" clip-path="url(#clip-path-4)">
        <g id="Group_970" data-name="Group 970" clip-path="url(#clip-path-5)">
          <path id="Path_834" data-name="Path 834" d="M79.484,79.484h823.8v823.8H79.484Zm0,0" transform="translate(-79.484 -79.484)" fill="#ed1e24"/>
        </g>
      </g>
      <g id="Group_973" data-name="Group 973" transform="translate(303.1 303.1)" clip-path="url(#clip-path-6)">
        <g id="Group_972" data-name="Group 972" clip-path="url(#clip-path-7)">
          <path id="Path_837" data-name="Path 837" d="M411.885,0C184.411,0,0,184.411,0,411.886S184.411,823.77,411.885,823.77,823.77,639.36,823.77,411.886,639.36,0,411.885,0Zm0,0" transform="translate(-0.001 -0.001)" fill="none" stroke="#ed1e24" stroke-width="7.5"/>
        </g>
      </g>
      <g id="Group_976" data-name="Group 976" transform="translate(154.474 376.222)">
        <g id="Group_975" data-name="Group 975">
          <g id="Group_974" data-name="Group 974" transform="translate(0 0)">
            <path id="Path_840" data-name="Path 840" d="M16.425-37.777-26.117,36.463,78.973,96.687,91.485,74.835,47.945,49.9,74.162,4.14,54.678-7.032,28.461,38.728,5.879,25.783l30.03-52.389Zm0,0" transform="translate(26.117 37.777)"/>
          </g>
        </g>
      </g>
      <g id="Group_979" data-name="Group 979" transform="translate(255.887 266.488)">
        <g id="Group_978" data-name="Group 978" transform="translate(0 0)">
          <g id="Group_977" data-name="Group 977" transform="translate(0 0)">
            <path id="Path_841" data-name="Path 841" d="M91.1,68.609c20.735-20.884,23.416-46.028,5.184-67.016L79.5,18.484c6.9,9.489,8.625,22.225-2.756,33.694-14.866,14.97-35.214,11.068-53.312-6.912C5.913,27.9,2.115,7.819,16.981-7.151c10.546-10.621,22.7-11.023,33.188-3.486L67.076-27.663C46.683-44.778,21.554-42.648.7-21.645-22.076,1.295-22.076,35.57,5.69,63.142,33.575,90.833,68.342,91.548,91.1,68.609Zm0,0" transform="translate(15.805 39.112)"/>
          </g>
        </g>
      </g>
      <g id="Group_982" data-name="Group 982" transform="translate(448.523 120.558)">
        <g id="Group_981" data-name="Group 981" transform="translate(0)">
          <g id="Group_980" data-name="Group 980" transform="translate(0 0)">
            <path id="Path_842" data-name="Path 842" d="M76.842,43.881l2.994,24.578L67.07,47.367,25.392-13.259-7.945-1.373l40.71,114.087,21.956-7.835L39.453,62.1,16.782,7.148l19.8,30.685L76.827,96.985l24.191-8.625-6.2-70.04L90.367-18.935,107.542,37.8,122.81,80.584l22.105-7.895L104.22-41.383,70.407-29.317Zm0,0" transform="translate(7.945 41.383)"/>
          </g>
        </g>
      </g>
      <g id="Group_985" data-name="Group 985" transform="translate(637.223 70.668)">
        <g id="Group_984" data-name="Group 984" transform="translate(0)">
          <g id="Group_983" data-name="Group 983" transform="translate(0)">
            <path id="Path_843" data-name="Path 843" d="M50.1-18.235,49.358-40l-23.982.819.76,21.763Zm35.869-1.236-.745-21.763-23.967.819L62-18.652ZM60.4,117.749c32.309-1.117,56.932-27.334,55.591-66.6C114.632,12.048,88.3-11.219,56-10.1S-.289,16.01,1.051,55.112C2.407,94.556,28.1,118.851,60.4,117.749Zm-.745-21.763C39.765,96.671,27.1,79.913,26.21,54.233,25.361,29.6,36.861,12.346,56.747,11.661S89.964,27.2,90.814,52.014C91.707,77.694,79.537,95.3,59.651,95.986Zm0,0" transform="translate(-0.998 41.234)"/>
          </g>
        </g>
      </g>
      <g id="Group_988" data-name="Group 988" transform="translate(794.466 112.667)">
        <g id="Group_987" data-name="Group 987" transform="translate(0)">
          <g id="Group_986" data-name="Group 986" transform="translate(0 0)">
            <path id="Path_844" data-name="Path 844" d="M55.552-24.342,31.063-30.211,2.82,87.57,84.7,107.218l5.243-21.837L32.537,71.6Zm0,0" transform="translate(-2.82 30.211)"/>
          </g>
        </g>
      </g>
      <g id="Group_991" data-name="Group 991" transform="translate(912.227 157.127)">
        <g id="Group_990" data-name="Group 990" transform="translate(0)">
          <g id="Group_989" data-name="Group 989" transform="translate(0)">
            <path id="Path_845" data-name="Path 845" d="M80.777-15.225,58.434-26.844,2.574,80.615l74.7,38.848L87.644,99.533,35.271,72.3Zm0,0" transform="translate(-2.574 26.844)"/>
          </g>
        </g>
      </g>
      <g id="Group_994" data-name="Group 994" transform="translate(1012.9 260.01)">
        <g id="Group_993" data-name="Group 993" transform="translate(0)">
          <g id="Group_992" data-name="Group 992" transform="translate(0 0)">
            <path id="Path_846" data-name="Path 846" d="M84.46,122.151,135.836,4.757,114.461-14.965.82,44.991l19.633,18.1L43.527,50.13,75.776,79.892,64.709,103.934ZM76.372,31.838l31.281-18.6L91.506,45.8,84.982,60.14,62.593,39.494Zm0,0" transform="translate(-0.82 14.965)"/>
          </g>
        </g>
      </g>
      <g id="Group_997" data-name="Group 997" transform="translate(1119.724 365.111)">
        <g id="Group_996" data-name="Group 996" transform="translate(0 0)">
          <g id="Group_995" data-name="Group 995" transform="translate(0 0)">
            <path id="Path_847" data-name="Path 847" d="M97.2,75.747c-7.284,4.379-14.643,8.982-21.852,13.5,3.828-6.852,7.418-13.764,11.068-20.914L118.052,7.3,105.361-13.852,1.492,48.458,14.437,70.042l45.522-27.3c7.15-4.275,14.583-8.744,21.793-13.272-3.947,7.329-7.88,14.658-11.738,22.12l-30.894,59.6L51.8,132.336,155.664,70.042l-12.944-21.6Zm0,0" transform="translate(-1.492 13.852)"/>
          </g>
        </g>
      </g>
      <g id="Group_1000" data-name="Group 1000" transform="translate(515.632 1199.368)">
        <g id="Group_999" data-name="Group 999">
          <g id="Group_998" data-name="Group 998" transform="translate(0 0)">
            <path id="Path_848" data-name="Path 848" d="M48.713,35.909l-7.88,12.84,1.892-14.881,3.069-44.658L25.4-17.73,1.672,52.042l13.421,4.573L24,30.458,33.966-4.324,31.806,17.8,28.618,61.217,43.41,66.252,66.945,30.517,78.922,11.078,65.649,44.623,56.742,70.8l13.525,4.588L94.011,5.611,73.336-1.42Zm0,0" transform="translate(-1.672 17.73)"/>
          </g>
        </g>
      </g>
      <g id="Group_1003" data-name="Group 1003" transform="translate(611.206 1230.089)">
        <g id="Group_1002" data-name="Group 1002">
          <g id="Group_1001" data-name="Group 1001" transform="translate(0 0)">
            <path id="Path_849" data-name="Path 849" d="M69.118,61.453,55.161-15.261l-17.488-2.7-37,68.863L16.73,53.394,23.969,39l26.4,4.067,2.592,15.894ZM34.336,18.6,43.81-1.408l2.9,21.912,1.594,9.459L29.987,27.148Zm0,0" transform="translate(-0.672 17.957)"/>
          </g>
        </g>
      </g>
      <g id="Group_1006" data-name="Group 1006" transform="translate(706.481 1237.011)">
        <g id="Group_1005" data-name="Group 1005">
          <g id="Group_1004" data-name="Group 1004" transform="translate(0 0)">
            <path id="Path_850" data-name="Path 850" d="M17.272-19.28,1.959-19.324l-.194,73.7,51.242.134.03-13.659-35.914-.089Zm0,0" transform="translate(-1.766 19.324)"/>
          </g>
        </g>
      </g>
      <g id="Group_1009" data-name="Group 1009" transform="translate(772.275 1225.243)">
        <g id="Group_1008" data-name="Group 1008" transform="translate(0)">
          <g id="Group_1007" data-name="Group 1007" transform="translate(0 0)">
            <path id="Path_851" data-name="Path 851" d="M44.366,25.6l-.953,15.03L38.125,26.6,19.952-14.32-1.3-10.923,10.314,61.858l14-2.234-4.35-27.3L12.519-3.073,20.95,17.483,38.423,57.359,53.855,54.9l4.111-42.587,1.49-22.776L63.4,25.378l4.364,27.3,14.106-2.264L70.24-22.363,48.671-18.907Zm0,0" transform="translate(1.305 22.363)"/>
          </g>
        </g>
      </g>
      <g id="Group_1012" data-name="Group 1012" transform="translate(868.299 1184.775)">
        <g id="Group_1011" data-name="Group 1011" transform="translate(0)">
          <g id="Group_1010" data-name="Group 1010" transform="translate(0 0)">
            <path id="Path_852" data-name="Path 852" d="M15.092-8.426,10.712-20.938-3.066-16.112l4.379,12.5Zm20.616-7.21-4.364-12.5L17.564-23.321l4.364,12.513ZM45.673,68.72c18.56-6.48,28.138-26.172,20.243-48.739C58.066-2.5,38.553-11.256,19.992-4.761S-8,20.591-.147,43.069C7.778,65.741,27.1,75.214,45.673,68.72Zm-4.379-12.5C29.868,60.214,19.471,52.766,14.317,38,9.372,23.839,12.932,11.743,24.357,7.751s22.105,3.009,27.1,17.279C56.606,39.792,52.733,52.215,41.293,56.222Zm0,0" transform="translate(3.066 28.133)"/>
          </g>
        </g>
      </g>
      <g id="Group_1015" data-name="Group 1015" transform="translate(115.621 685.566)">
        <g id="Group_1014" data-name="Group 1014">
          <g id="Group_1013" data-name="Group 1013" transform="translate(0 0)">
            <path id="Path_853" data-name="Path 853" d="M17.275,31.309H39.5V39.65H1.187V34.705L18.824,17.366A59.1,59.1,0,0,0,26.57,8.608a12.223,12.223,0,0,0,2.2-6.912,8.134,8.134,0,0,0-2.026-5.78,7.072,7.072,0,0,0-5.541-2.2,7.213,7.213,0,0,0-5.9,2.443q-2.033,2.391-2.562,7.21l-.06.775H2.2l.119-.775q.827-8.446,5.9-12.93,5.117-4.513,14-4.528,8.446,0,13.049,4.111A13.989,13.989,0,0,1,39.917,1.04a17.083,17.083,0,0,1-2.741,9.235q-2.748,4.29-10.189,11.5Zm0,0" transform="translate(-1.187 14.094)" fill="#fff"/>
          </g>
        </g>
      </g>
      <g id="Group_1018" data-name="Group 1018" transform="translate(165.815 685.625)">
        <g id="Group_1017" data-name="Group 1017">
          <g id="Group_1016" data-name="Group 1016" transform="translate(0 0)">
            <path id="Path_854" data-name="Path 854" d="M21.431-14.078q20.422,0,20.437,27.408,0,27.349-20.437,27.349Q.875,40.679.875,13.33.875-14.063,21.431-14.078Zm-7.15,42.125c1.549,3.188,3.9,4.767,7.09,4.767,3.218,0,5.571-1.579,7.09-4.767s2.264-8.1,2.264-14.777q0-10.055-2.264-14.777C26.943-4.634,24.6-6.213,21.431-6.213a7.493,7.493,0,0,0-7.15,4.707c-1.519,3.143-2.264,8.074-2.264,14.777C12.017,19.944,12.762,24.874,14.281,28.047Zm0,0" transform="translate(-0.875 14.078)" fill="#fff"/>
          </g>
        </g>
      </g>
      <g id="Group_1021" data-name="Group 1021" transform="translate(1224.007 681.973)">
        <g id="Group_1020" data-name="Group 1020">
          <g id="Group_1019" data-name="Group 1019" transform="translate(0 0)">
            <path id="Path_855" data-name="Path 855" d="M21.431-14.078q20.422,0,20.437,27.408,0,27.349-20.437,27.349Q.875,40.679.875,13.33.875-14.063,21.431-14.078Zm-7.15,42.125c1.549,3.188,3.9,4.767,7.09,4.767,3.218,0,5.571-1.579,7.09-4.767s2.264-8.1,2.264-14.777q0-10.055-2.264-14.777C26.943-4.634,24.6-6.213,21.431-6.213a7.493,7.493,0,0,0-7.15,4.707c-1.519,3.143-2.264,8.074-2.264,14.777C12.017,19.944,12.762,24.874,14.281,28.047Zm0,0" transform="translate(-0.875 14.078)" fill="#fff"/>
          </g>
        </g>
      </g>
      <g id="Group_1024" data-name="Group 1024" transform="translate(1276.583 681.913)">
        <g id="Group_1023" data-name="Group 1023">
          <g id="Group_1022" data-name="Group 1022" transform="translate(0 0)">
            <path id="Path_856" data-name="Path 856" d="M17.275,31.309H39.5V39.65H1.187V34.705L18.824,17.366A59.1,59.1,0,0,0,26.57,8.608a12.223,12.223,0,0,0,2.2-6.912,8.134,8.134,0,0,0-2.026-5.78,7.072,7.072,0,0,0-5.541-2.2,7.213,7.213,0,0,0-5.9,2.443q-2.033,2.391-2.562,7.21l-.06.775H2.2l.119-.775q.827-8.446,5.9-12.93,5.117-4.513,14-4.528,8.446,0,13.049,4.111A13.989,13.989,0,0,1,39.917,1.04a17.083,17.083,0,0,1-2.741,9.235q-2.748,4.29-10.189,11.5Zm0,0" transform="translate(-1.187 14.094)" fill="#fff"/>
          </g>
        </g>
      </g>
      <g id="Group_1027" data-name="Group 1027" transform="translate(115.207 729.023)">
        <g id="Group_1026" data-name="Group 1026">
          <g id="Group_1025" data-name="Group 1025" transform="translate(0 0)">
            <path id="Path_857" data-name="Path 857" d="M17.275,31.309H39.5V39.65H1.187V34.705L18.824,17.366A59.1,59.1,0,0,0,26.57,8.608a12.223,12.223,0,0,0,2.2-6.912,8.134,8.134,0,0,0-2.026-5.78,7.072,7.072,0,0,0-5.541-2.2,7.213,7.213,0,0,0-5.9,2.443q-2.033,2.391-2.562,7.21l-.06.775H2.2l.119-.775q.827-8.446,5.9-12.93,5.117-4.513,14-4.528,8.446,0,13.049,4.111A13.989,13.989,0,0,1,39.917,1.04a17.083,17.083,0,0,1-2.741,9.235q-2.748,4.29-10.189,11.5Zm0,0" transform="translate(-1.187 14.094)"/>
          </g>
        </g>
      </g>
      <g id="Group_1030" data-name="Group 1030" transform="translate(165.401 729.082)">
        <g id="Group_1029" data-name="Group 1029">
          <g id="Group_1028" data-name="Group 1028" transform="translate(0 0)">
            <path id="Path_858" data-name="Path 858" d="M21.431-14.078q20.422,0,20.437,27.408,0,27.349-20.437,27.349Q.875,40.679.875,13.33.875-14.063,21.431-14.078Zm-7.15,42.125c1.549,3.188,3.9,4.767,7.09,4.767,3.218,0,5.571-1.579,7.09-4.767s2.264-8.1,2.264-14.777q0-10.055-2.264-14.777C26.943-4.634,24.6-6.213,21.431-6.213a7.493,7.493,0,0,0-7.15,4.707c-1.519,3.143-2.264,8.074-2.264,14.777C12.017,19.944,12.762,24.874,14.281,28.047Zm0,0" transform="translate(-0.875 14.078)"/>
          </g>
        </g>
      </g>
      <g id="Group_1033" data-name="Group 1033" transform="translate(1223.592 725.429)">
        <g id="Group_1032" data-name="Group 1032">
          <g id="Group_1031" data-name="Group 1031" transform="translate(0 0)">
            <path id="Path_859" data-name="Path 859" d="M21.431-14.078q20.422,0,20.437,27.408,0,27.349-20.437,27.349Q.875,40.679.875,13.33.875-14.063,21.431-14.078Zm-7.15,42.125c1.549,3.188,3.9,4.767,7.09,4.767,3.218,0,5.571-1.579,7.09-4.767s2.264-8.1,2.264-14.777q0-10.055-2.264-14.777C26.943-4.634,24.6-6.213,21.431-6.213a7.493,7.493,0,0,0-7.15,4.707c-1.519,3.143-2.264,8.074-2.264,14.777C12.017,19.944,12.762,24.874,14.281,28.047Zm0,0" transform="translate(-0.875 14.078)"/>
          </g>
        </g>
      </g>
      <g id="Group_1036" data-name="Group 1036" transform="translate(1276.169 725.37)">
        <g id="Group_1035" data-name="Group 1035">
          <g id="Group_1034" data-name="Group 1034" transform="translate(0 0)">
            <path id="Path_860" data-name="Path 860" d="M17.275,31.309H39.5V39.65H1.187V34.705L18.824,17.366A59.1,59.1,0,0,0,26.57,8.608a12.223,12.223,0,0,0,2.2-6.912,8.134,8.134,0,0,0-2.026-5.78,7.072,7.072,0,0,0-5.541-2.2,7.213,7.213,0,0,0-5.9,2.443q-2.033,2.391-2.562,7.21l-.06.775H2.2l.119-.775q.827-8.446,5.9-12.93,5.117-4.513,14-4.528,8.446,0,13.049,4.111A13.989,13.989,0,0,1,39.917,1.04a17.083,17.083,0,0,1-2.741,9.235q-2.748,4.29-10.189,11.5Zm0,0" transform="translate(-1.187 14.094)"/>
          </g>
        </g>
      </g>
    </g>
    <g id="statue-final-blck" transform="translate(449.075 388.666)">
      <path id="Path_788" data-name="Path 788" d="M320.64,225.87a18.878,18.878,0,0,1-7.22-2.36c-10.25-5.91-11.81-20.6-12.58-27.78-1.46-13.77,2.08-21.85,0-29.09a16.012,16.012,0,0,1-.19-7.13c.3-1.44.74-3.42,2.44-4.32a4.162,4.162,0,0,1,3.75,0c.38.19,1.61.91,2.44,3.75a16.638,16.638,0,0,1,.38,7.51c-.67,3.28-.59,9.48,3,22.32,3.87,8.89,7.92,10.55,10.14,10.89,5.24.81,7.01-4.68,19.15-12.01,9.04-5.46,14.84-6.5,15.39-10.89.4-3.16-2.44-3.96-2.63-8.43-.25-5.97,4.71-10.52,6.38-12.39,3.27-3.64,7.41-4.93,11.06-6.06,3.67-1.14,8.17-2.53,13.72-1.08a20.794,20.794,0,0,1,10.7,6.95c1.02,1.27,5.32,6.58,4.5,13.51-.51,4.39-2.84,7.41-4.5,9.57-5.12,6.65-9.46,5.91-11.45,11.26a18.748,18.748,0,0,0-.56,8.82c.41,3.35,1.23,3.93,1.88,7.51.44,2.43,1.13,6.19,0,10.14-.7,2.46-2.72,5.2-6.76,10.7-2.52,3.44-3.31,4.17-3.94,6.19-1.03,3.3.07,4.46-.56,7.88-.97,5.28-4.11,5.35-4.5,9.01-.44,4.07,3.32,5.29,8.45,14.08,2.99,5.13,4.48,7.7,4.5,11.26.03,5.16-2.91,5.77-3.38,12.39a24.688,24.688,0,0,0,1.69,10.7c1.42,3.6,2.28,3.21,3.94,6.76,2.69,5.74,1.03,8.04,3.38,15.2a46.675,46.675,0,0,0,3.94,8.45,86.321,86.321,0,0,0,7.88,11.83c3.98,5.09,4.96,5.33,10.14,11.83,3,3.77,4.52,5.69,5.63,7.88,2.22,4.39,1.61,5.97,3.38,12.95,1.42,5.6,3.02,11.7,7.32,17.46,2.07,2.77,5.37,3.21,6.76,6.76a10.889,10.889,0,0,1,.56,5.63c-.38,2.34-1.45,3.84-3.57,6.74a44.907,44.907,0,0,1-4.88,5.63,12.666,12.666,0,0,1-7.73,6.81c-4.82,1.36-10.83-.41-12.17-3.81-1.8-4.56,6.5-7.79,8.32-16.43,1.04-4.93-3.32-12.64-12.07-27.86-8.02-13.95-12.13-20.99-16.89-24.03-2.2-1.4-5.78-3.26-8.63-7.51-2.52-3.76-2.4-6.29-4.13-10.89-1.8-4.79-3.33-5.76-8.63-13.51-9.27-13.53-10.38-19.05-13.51-18.77-3.34.3-2.71,6.62-9.95,11.45-1.65,1.1-4.25,2.48-7.7,4.32-4.01,2.13-3.67,1.78-5.36,2.78-5.22,3.08-5.34,4.63-9.52,6.71-3.9,1.94-5.24,1.31-5.76,2.52-1.23,2.85,5.84,7.12,13.51,15.58,7.74,8.53,5.57,9.73,13.51,18.96,9.08,10.55,15.69,13.36,14.64,17.27-.71,2.64-3.82,1.73-11.64,6.38-7.93,4.71-9.83,8.66-15.77,9.01-1.06.06-5.03.3-6.38-1.88-1.37-2.22.26-6.47,4.48-10.35,4.82-4.52,5.55-7.86,5.28-10.11-.99-8.24-16.57-12.15-29.66-23.07-2.67-2.23-5.38-4.87-6.57-6.03-4.38-4.27-6.57-6.4-7.13-8.07-1.29-3.83,1.24-6.96,7.13-16.89,8.56-14.43,6.91-14.04,10.89-18.96,1.06-1.31,1.96-1.96,5.15-5.35,2.93-3.11,5.43-5.77,8.17-9.1a74.7,74.7,0,0,0,5.29-6.95c3.09-4.87,3.52-8.97,4.84-18.18,2.93-20.38,4.1-22.87,1.72-26.75a18.621,18.621,0,0,0-9.51-7.31Z" fill="#fff" stroke="#fff" stroke-miterlimit="10" stroke-width="5"/>
      <path id="Path_789" data-name="Path 789" d="M405.17,210.53c1.2-2.64,1.14-3.18,1.82-3.64,1.41-.94,2.63.72,5.46.52,2.94-.21,3.37-2.13,6.24-2.34,2.02-.15,3.56.68,5.2,1.56,1.4.75,5.16,2.77,6.5,7.02a12.3,12.3,0,0,1,0,6.5c-.49,2.5-1.19,6-3.9,7.8-2.42,1.61-4.86.82-5.72,2.6-.56,1.15.31,1.8-.26,3.12-.75,1.73-3.17,2.76-5.2,2.6-2.72-.22-3.98-2.52-4.68-2.08-.84.53,1,3.82,1.82,8.32.69,3.78.35,6.63-.26,11.7-.18,1.49-.16.91-2.08,11.18-.23,1.23-.87,4.68-1.56,9.1-.65,4.18-.97,6.29-.78,7.28.58,3,2.23,3.69,6.5,9.1,3.46,4.38,5.18,6.56,5.72,8.84.61,2.58.23,5.45-.52,11.18-.47,3.6-.67,3.47-.78,5.2-.3,4.83,1.06,8.48,2.34,11.96,2.21,6.03,6.43,16.57,5.38,17.16-.52.29-2.04-2.02-11.18-14.13-3.44-4.56-4.92-6.48-6.42-9.79a47.364,47.364,0,0,1-3.12-9.88c-1.02-5.39-.46-5.38-1.56-8.32-1.62-4.32-3.37-4.59-4.76-8.84a19.013,19.013,0,0,1-.96-7.28c.43-5.97,3.8-7.08,3.12-11.7-.22-1.48-.93-3.07-2.34-6.24a41.893,41.893,0,0,0-3.12-5.98c-1.46-2.3-1.97-2.54-3.38-4.94-1.34-2.28-2.01-3.42-2.08-4.68-.13-2.49,1.58-2.79,2.34-5.98.87-3.64-.98-4.82.26-7.8.54-1.3.88-1.03,3.12-3.9a64.557,64.557,0,0,0,4.16-6.24c2.35-3.79,3.53-5.68,3.64-6.24.78-4.05-1.99-5.97-.52-9.62.35-.87.62-1.04,1.56-3.12Z" fill="#fff" stroke="#fff" stroke-miterlimit="10" stroke-width="5"/>
      <path id="Path_790" data-name="Path 790" d="M115.29,163.86c-4.81-.86-5.33-.29-8-1.07a19.686,19.686,0,0,1-7.49-4.33c-3.87-3.31-10.11-10.7-7.88-14.64,1.52-2.69,6.31-2.77,9.57-2.82,6.72-.1,8.21,2.44,14.64,2.25,2.99-.09,8.02-.23,10.14-3.38,2.15-3.19-1.06-5.97.56-11.26,1.81-5.93,7.75-8.7,8.45-9.01,3.85-1.73,7.22-1.27,12.39-.56,1.95.27,4.01.67,14.08,3.94,6.87,2.23,10.31,3.35,13.51,4.5,9.02,3.25,9.61,3.96,12.39,3.94,5.22-.03,6.08-2.37,12.39-3.94,9.04-2.25,17.19.22,19.43.9,7.55,2.29,8.47,5.25,16.05,6.19a55.817,55.817,0,0,0,9.01.22c6.93-.4,7.17-1.82,10.14-1.13,5.59,1.31,5.56,5.86,11.83,7.88,3.12,1.01,5.82.73,9.57,0a28.831,28.831,0,0,0,11.26-5.14c4.74-3.27,4.01-4.33,7.32-6.13.43-.23,7.79-4.08,14.77-1.29,5.5,2.21,4.52,6.04,10.57,9.17,6.16,3.18,12.54,1.97,14.08,1.69,1.61-.3,2.8-.71,11.83-5.63,8.04-4.38,12.1-6.61,14.64-8.45,6.38-4.61,5.49-5.58,10.7-9.01,4.4-2.9,9.86-6.49,16.89-6.19,6,.25,10.47,3.23,14.08,5.63,6.77,4.51,6.03,7,11.83,10.14,3.5,1.9,4.05,1.14,14.64,3.94,12.17,3.22,14.09,4.93,15.2,6.19,2.8,3.19,4.79,8.57,2.82,12.39-1.24,2.41-3.63,3.36-7.88,5.07-4.87,1.95-6.01,1.54-11.83,3.38-7.7,2.43-9.68,4.69-11.83,3.38-.82-.5-.79-1.04-2.25-5.29a61.475,61.475,0,0,0-3.94-9.85,25.277,25.277,0,0,0-12.96-11.83,38.634,38.634,0,0,0-13.51-3.1c-4.65-.41-7.87-.7-12.01.43a29.705,29.705,0,0,0-10.11,5.25,48.175,48.175,0,0,0-8.29,7.84c-4.36,5.04-4.06,6.38-6.76,7.88-2.53,1.41-3.46.59-10.18,1.34-8.84.97-10.56,2.74-12.9,1.2-2.72-1.79-1.15-4.65-4.64-9.5a17.4,17.4,0,0,0-7.35-6.01,14.763,14.763,0,0,0-17.29,3.63c-5.22,5.63-1.31,11.37-5.55,16.81-2.68,3.44-6.67,4.42-11.28,5.54-6.23,1.52-11.2.63-16.39-.3-6.17-1.11-9.26-1.66-11.37-4.03-2.95-3.3-.62-6.09-3.73-12.3-2.12-4.22-4.4-8.76-9.11-10.18-5.74-1.72-11.27,2.34-11.83,2.76-4.92,3.74-3.41,7.48-7.88,10.19-2.25,1.36-5.63,1.38-12.39,1.41-5.41.03-8.12.04-10.14-.9-4.13-1.93-3.51-4.56-9.01-9.51a39.656,39.656,0,0,0-9.57-6.25,55.91,55.91,0,0,0-11.26-3.94c-5.66-1.54-8.49-2.31-12.39-2.25a24.248,24.248,0,0,0-10.7,2.25,23.409,23.409,0,0,0-7.6,5.97c-2.68,3.05-3.9,5.87-5.63,9.85a39.169,39.169,0,0,0-3.1,9.01c-.89,4.68-.22,6.87-1.81,7.92-1.19.78-2.18-.03-6.92-.88Z" fill="#fff" stroke="#fff" stroke-miterlimit="10" stroke-width="5"/>
      <path id="Path_791" data-name="Path 791" d="M79.81,131.3c-4.21-.83-5.86-9.55-7.04-15.77-.84-4.44-1-9.15-1.13-18.58a65.047,65.047,0,0,1,.56-11.83,56.587,56.587,0,0,1,2.25-9.01c1.72-5.14,2.86-8.53,5.63-11.83,3.39-4.03,4.9-2.75,8.45-6.76,3.08-3.48,2.08-4.59,6.19-11.83,3.23-5.69,4.11-5.46,6.76-10.7,2.63-5.19,1.96-5.79,3.94-8.45,3.21-4.31,7.53-6.19,10.14-7.32a38.147,38.147,0,0,1,12.39-2.82c4.58-.41,5.17.21,9.01-.56,3.13-.63,4.41-1.39,7.88-1.69,2.1-.18,2.51.01,5.63,0,5.39-.03,5.99-.62,9.01-.56,3.47.07,3.7.87,11.26,2.82a96.96,96.96,0,0,0,10.7,2.25c6.62.97,6.95.16,12.39,1.13,6.35,1.13,6.25,2.3,11.26,2.82a31.448,31.448,0,0,0,12.39-1.13c5.13-1.59,4.6-3.05,9.01-4.5,8.68-2.87,17.31.6,18.58,1.13,4.89,2.04,4.84,3.75,9.01,4.5,3.68.67,6.89-.09,11.26-1.13,5.19-1.23,5.24-2.02,9.57-2.82a44.372,44.372,0,0,1,10.14-.56,51.886,51.886,0,0,1,10.14,1.13c4.31.94,5.01,1.71,7.88,1.69a19.612,19.612,0,0,0,7.32-1.69c4.63-1.77,4.58-3,8.45-4.5,3.14-1.22,5.71-1.39,10.14-1.69,1.91-.13,4.49-.09,9.57,0,7.45.13,7.75.28,9.57,0,1.66-.25,4.14-1.11,9.01-2.82,4.5-1.58,6.76-2.36,9.01-3.38,5.51-2.48,5.18-3.22,7.88-3.94,3.31-.89,6.38-.23,12.39,1.13,7.6,1.71,7.34,2.56,12.39,3.38,3.69.59,4.87.31,12.95.56,8.7.27,9.27-.28,11.26.56,3.67,1.56,5.81,4.55,9.01,9.01,3.1,4.33,2.78,5.41,5.63,8.45,2.79,2.97,3.85,2.74,6.76,5.63,2.02,2.01,2.97,3.57,6.19,9.01,6.49,10.95,5.93,10.16,7.32,12.39,5.03,8.08,5.6,7.52,8.45,12.95,2.52,4.82,2.4,5.88,5.07,10.14,2.47,3.93,3.52,4.53,4.5,7.32a19.8,19.8,0,0,1,.56,10.14c-.89,5.29-2.75,5.91-5.07,12.39-1.6,4.48-.99,4.81-2.82,12.39-.91,3.8-4.18,17.38-6.76,17.18-1.68-.13-.56-5.95-5.07-10.98-2.67-2.98-6.09-4.32-10.14-5.91a53.624,53.624,0,0,0-9.01-2.53c-7.06-1.53-7.53-.71-10.78-2.05-2.39-.98-4.57-2.79-8.92-6.4-5.33-4.42-5.16-5-8.45-7.32a33.833,33.833,0,0,0-23.09-6.76,37.359,37.359,0,0,0-11.83,2.25c-3.71,1.38-6.1,2.98-10.42,5.91-4.72,3.21-5.05,4.01-10.98,8.45-5.55,4.15-8.41,6.27-12.39,8.17-5.42,2.58-9.66,4.6-13.8,3.1-3.44-1.25-2.78-3.49-7.92-7.38a28.483,28.483,0,0,0-11.79-5.29,24.608,24.608,0,0,0-19.99,4.79c-5.97,4.3-5.74,7.31-10.7,9.29a13.423,13.423,0,0,1-8.45.84c-5.38-1.44-5.37-6.03-11.26-8.17a18.575,18.575,0,0,0-9.01-.56c-5.05.64-5.3,2.32-9.57,2.82-4.31.5-7.81-.78-11.83-2.25-5.27-1.93-5.42-3.18-10.14-4.5a29.978,29.978,0,0,0-9.01-1.13c-3.2.13-5.49.79-9.57,1.97-6.56,1.9-6.98,2.89-9.85,2.82-2.37-.06-2.98-.76-8.73-3.1-4.64-1.89-8.16-3.03-11.83-4.22-5.58-1.81-10.01-2.89-12.11-3.38-6.16-1.43-9.23-2.14-13.51-2.25s-8.06-.21-12.39,1.69a23.46,23.46,0,0,0-9.29,7.6c-5.1,6.86-3.32,11.9-7.32,13.8-2.85,1.35-4.06-1.05-10.98-1.13a30.663,30.663,0,0,0-12.11,2.25c-6.33,2.65-7.18,5.88-9.85,5.35Z" fill="#fff" stroke="#fff" stroke-miterlimit="10" stroke-width="5"/>
      <path id="Path_792" data-name="Path 792" d="M484.49,454.2H56.21a8.18,8.18,0,1,1,0-16.36H484.48a8.18,8.18,0,0,1,0,16.36Z" fill="#fff" stroke="#fff" stroke-miterlimit="10" stroke-width="1"/>
      <rect id="Rectangle_27" data-name="Rectangle 27" width="105.82" height="32.35" rx="16.175" transform="translate(48.04 465.45)" fill="#fff" stroke="#fff" stroke-miterlimit="10" stroke-width="1"/>
      <rect id="Rectangle_28" data-name="Rectangle 28" width="50.71" height="32.35" rx="16.175" transform="translate(164.53 464.67)" fill="#fff" stroke="#fff" stroke-miterlimit="10" stroke-width="1"/>
      <rect id="Rectangle_29" data-name="Rectangle 29" width="121.83" height="32.35" rx="16.175" transform="translate(228.58 464.67)" fill="#fff" stroke="#fff" stroke-miterlimit="10" stroke-width="1"/>
      <rect id="Rectangle_30" data-name="Rectangle 30" width="55.85" height="32.35" rx="16.175" transform="translate(362.68 464.67)" fill="#fff" stroke="#fff" stroke-miterlimit="10" stroke-width="1"/>
      <rect id="Rectangle_31" data-name="Rectangle 31" width="63.84" height="32.35" rx="16.175" transform="translate(428.82 464.67)" fill="#fff" stroke="#fff" stroke-miterlimit="10" stroke-width="1"/>
      <rect id="Rectangle_32" data-name="Rectangle 32" width="76.51" height="34.48" rx="17.24" transform="translate(48.04 506.87)" fill="#fff" stroke="#fff" stroke-miterlimit="10" stroke-width="1"/>
      <rect id="Rectangle_33" data-name="Rectangle 33" width="99.61" height="34.48" rx="17.24" transform="translate(135.34 506.87)" fill="#fff" stroke="#fff" stroke-miterlimit="10" stroke-width="1"/>
      <rect id="Rectangle_34" data-name="Rectangle 34" width="73.6" height="34.48" rx="17.24" transform="translate(246.85 506.87)" fill="#fff" stroke="#fff" stroke-miterlimit="10" stroke-width="1"/>
      <rect id="Rectangle_35" data-name="Rectangle 35" width="99.21" height="34.48" rx="17.24" transform="translate(333.77 506.87)" fill="#fff" stroke="#fff" stroke-miterlimit="10" stroke-width="1"/>
      <rect id="Rectangle_36" data-name="Rectangle 36" width="49.6" height="34.48" rx="17.24" transform="translate(443.06 506.87)" fill="#fff" stroke="#fff" stroke-miterlimit="10" stroke-width="1"/>
      <rect id="Rectangle_37" data-name="Rectangle 37" width="102.44" height="32.55" rx="16.275" transform="translate(0.5 551.19)" fill="#fff" stroke="#fff" stroke-miterlimit="10" stroke-width="1"/>
      <rect id="Rectangle_38" data-name="Rectangle 38" width="124.42" height="32.55" rx="16.275" transform="translate(113.81 551.19)" fill="#fff" stroke="#fff" stroke-miterlimit="10" stroke-width="1"/>
      <rect id="Rectangle_39" data-name="Rectangle 39" width="80.03" height="32.55" rx="16.275" transform="translate(250.26 551.19)" fill="#fff" stroke="#fff" stroke-miterlimit="10" stroke-width="1"/>
      <rect id="Rectangle_40" data-name="Rectangle 40" width="111.2" height="32.55" rx="16.275" transform="translate(343.08 551.19)" fill="#fff" stroke="#fff" stroke-miterlimit="10" stroke-width="1"/>
      <rect id="Rectangle_41" data-name="Rectangle 41" width="64.79" height="32.55" rx="16.275" transform="translate(466.56 551.19)" fill="#fff" stroke="#fff" stroke-miterlimit="10" stroke-width="1"/>
      <path id="Path_793" data-name="Path 793" d="M216.2,226.88a18.878,18.878,0,0,0,7.22-2.36c10.25-5.91,11.81-20.6,12.58-27.78,1.46-13.77-2.08-21.85,0-29.09a16.012,16.012,0,0,0,.19-7.13c-.3-1.44-.74-3.42-2.44-4.32a4.162,4.162,0,0,0-3.75,0c-.38.19-1.61.91-2.44,3.75a16.638,16.638,0,0,0-.38,7.51c.67,3.28.59,9.48-3,22.32-3.87,8.89-7.92,10.55-10.14,10.89-5.24.81-7.01-4.68-19.15-12.01-9.04-5.46-14.84-6.5-15.39-10.89-.4-3.16,2.44-3.96,2.63-8.43.25-5.97-4.71-10.52-6.38-12.39-3.27-3.64-7.41-4.93-11.06-6.06-3.67-1.14-8.17-2.53-13.72-1.08a20.793,20.793,0,0,0-10.7,6.95c-1.02,1.27-5.32,6.58-4.5,13.51.51,4.39,2.84,7.41,4.5,9.57,5.12,6.65,9.46,5.91,11.45,11.26a18.747,18.747,0,0,1,.56,8.82c-.41,3.35-1.23,3.93-1.88,7.51-.44,2.43-1.13,6.19,0,10.14.7,2.46,2.72,5.2,6.76,10.7,2.52,3.44,3.31,4.17,3.94,6.19,1.03,3.3-.07,4.46.56,7.88.97,5.28,4.11,5.35,4.5,9.01.44,4.07-3.32,5.29-8.45,14.08-2.99,5.13-4.48,7.7-4.5,11.26-.03,5.16,2.91,5.77,3.38,12.39a24.688,24.688,0,0,1-1.69,10.7c-1.42,3.6-2.28,3.21-3.94,6.76-2.69,5.74-1.03,8.04-3.38,15.2a46.676,46.676,0,0,1-3.94,8.45,86.324,86.324,0,0,1-7.88,11.83c-3.98,5.09-4.96,5.33-10.14,11.83-3,3.77-4.52,5.69-5.63,7.88-2.22,4.39-1.61,5.97-3.38,12.95-1.42,5.6-3.02,11.7-7.32,17.46-2.07,2.77-5.37,3.21-6.76,6.76a10.889,10.889,0,0,0-.56,5.63c.38,2.34,1.45,3.84,3.57,6.74a44.908,44.908,0,0,0,4.88,5.63,12.666,12.666,0,0,0,7.73,6.81c4.82,1.36,10.83-.41,12.17-3.81,1.8-4.56-6.5-7.79-8.32-16.43-1.04-4.93,3.32-12.64,12.07-27.86,8.02-13.95,12.13-20.99,16.89-24.03,2.2-1.4,5.78-3.26,8.63-7.51,2.52-3.76,2.4-6.29,4.13-10.89,1.8-4.79,3.33-5.76,8.63-13.51,9.27-13.53,10.38-19.05,13.51-18.77,3.34.3,2.71,6.62,9.95,11.45,1.65,1.1,4.25,2.48,7.7,4.32,4.01,2.13,3.67,1.78,5.36,2.78,5.22,3.08,5.34,4.63,9.52,6.71,3.9,1.94,5.24,1.31,5.76,2.52,1.23,2.85-5.84,7.12-13.51,15.58-7.74,8.53-5.57,9.73-13.51,18.96-9.08,10.55-15.69,13.36-14.64,17.27.71,2.64,3.82,1.73,11.64,6.38,7.93,4.71,9.83,8.66,15.77,9.01,1.06.06,5.03.3,6.38-1.88,1.37-2.22-.26-6.47-4.48-10.35-4.82-4.52-5.55-7.86-5.28-10.11.99-8.24,16.57-12.15,29.66-23.07,2.67-2.23,5.38-4.87,6.57-6.03,4.38-4.27,6.57-6.4,7.13-8.07,1.29-3.83-1.24-6.96-7.13-16.89-8.56-14.43-6.91-14.04-10.89-18.96-1.06-1.31-1.96-1.96-5.15-5.35-2.93-3.11-5.43-5.77-8.17-9.1a74.694,74.694,0,0,1-5.29-6.95c-3.09-4.87-3.52-8.97-4.84-18.18-2.93-20.38-4.1-22.87-1.72-26.75a18.621,18.621,0,0,1,9.51-7.31Z" fill="#fff" stroke="#fff" stroke-miterlimit="10" stroke-width="5"/>
      <path id="Path_794" data-name="Path 794" d="M131.66,211.54c-1.2-2.64-1.14-3.18-1.82-3.64-1.41-.94-2.63.72-5.46.52-2.94-.21-3.37-2.13-6.24-2.34-2.02-.15-3.56.68-5.2,1.56-1.4.75-5.16,2.77-6.5,7.02a12.3,12.3,0,0,0,0,6.5c.49,2.5,1.19,6,3.9,7.8,2.42,1.61,4.86.82,5.72,2.6.56,1.15-.31,1.8.26,3.12.75,1.73,3.17,2.76,5.2,2.6,2.72-.22,3.98-2.52,4.68-2.08.84.53-1,3.82-1.82,8.32-.69,3.78-.35,6.63.26,11.7.18,1.49.16.91,2.08,11.18.23,1.23.87,4.68,1.56,9.1.65,4.18.97,6.29.78,7.28-.58,3-2.23,3.69-6.5,9.1-3.46,4.38-5.18,6.56-5.72,8.84-.61,2.58-.23,5.45.52,11.18.47,3.6.67,3.47.78,5.2.3,4.83-1.06,8.48-2.34,11.96-2.21,6.03-6.43,16.57-5.38,17.16.52.29,2.04-2.02,11.18-14.13,3.44-4.56,4.92-6.48,6.42-9.79a47.364,47.364,0,0,0,3.12-9.88c1.02-5.39.46-5.38,1.56-8.32,1.62-4.32,3.37-4.59,4.76-8.84a19.012,19.012,0,0,0,.96-7.28c-.43-5.97-3.8-7.08-3.12-11.7.22-1.48.93-3.07,2.34-6.24a41.893,41.893,0,0,1,3.12-5.98c1.46-2.3,1.97-2.54,3.38-4.94,1.34-2.28,2.01-3.42,2.08-4.68.13-2.49-1.58-2.79-2.34-5.98-.87-3.64.98-4.82-.26-7.8-.54-1.3-.88-1.03-3.12-3.9a64.554,64.554,0,0,1-4.16-6.24c-2.35-3.79-3.53-5.68-3.64-6.24-.78-4.05,1.99-5.97.52-9.62-.35-.87-.62-1.04-1.56-3.12Z" fill="#fff" stroke="#fff" stroke-miterlimit="10" stroke-width="5"/>
      <path id="Path_795" data-name="Path 795" d="M436.5,375.95c-.71-2.24-1.4-5.79-2.76-12.9-.94-4.88-.97-5.68-.56-5.91,1.72-.99,9.61,9.09,15.2,17.46,8.74,13.07,7.72,15.73,14.08,25.34,11.33,17.12,23.77,22.58,21.96,26.19-1.31,2.6-7.71-.37-23.65-.28-13.69.08-21.18,2.34-22.52-.56-1.13-2.43,3.68-4.93,7.32-13.51,1.57-3.7,3.85-9.09,2.98-15.04-1.31-8.96-8.23-8.78-12.05-20.77Z" fill="#fff" stroke="#fff" stroke-miterlimit="10" stroke-width="5"/>
      <path id="Path_796" data-name="Path 796" d="M99.82,375.95c.71-2.24,1.4-5.79,2.76-12.9.94-4.88.97-5.68.56-5.91-1.72-.99-9.61,9.09-15.2,17.46-8.74,13.07-7.72,15.73-14.08,25.34-11.33,17.12-23.77,22.58-21.96,26.19,1.31,2.6,7.71-.37,23.65-.28,13.69.08,21.18,2.34,22.52-.56,1.13-2.43-3.68-4.93-7.32-13.51-1.57-3.7-3.85-9.09-2.98-15.04,1.31-8.96,8.23-8.78,12.05-20.77Z" fill="#fff" stroke="#fff" stroke-miterlimit="10" stroke-width="5"/>
    </g>
  </g>
</svg>
